<svg id="visual" viewBox="0 0 900 150" width="900" height="150" xmlns="http://www.w3.org/2000/svg" xmlns:xlink="http://www.w3.org/1999/xlink" version="1.1"><rect x="0" y="0" width="900" height="150" fill="#ffaa64"></rect><path d="M0 45L25 48.3C50 51.7 100 58.3 150 56.8C200 55.3 250 45.7 300 46.8C350 48 400 60 450 66.8C500 73.7 550 75.3 600 69.7C650 64 700 51 750 43.5C800 36 850 34 875 33L900 32L900 151L875 151C850 151 800 151 750 151C700 151 650 151 600 151C550 151 500 151 450 151C400 151 350 151 300 151C250 151 200 151 150 151C100 151 50 151 25 151L0 151Z" fill="#bf3ce7"></path><path d="M0 60L25 62.2C50 64.3 100 68.7 150 73.3C200 78 250 83 300 84.3C350 85.7 400 83.3 450 81.3C500 79.3 550 77.7 600 75.7C650 73.7 700 71.3 750 68.8C800 66.3 850 63.7 875 62.3L900 61L900 151L875 151C850 151 800 151 750 151C700 151 650 151 600 151C550 151 500 151 450 151C400 151 350 151 300 151C250 151 200 151 150 151C100 151 50 151 25 151L0 151Z" fill="#b638ea"></path><path d="M0 78L25 76.5C50 75 100 72 150 74.8C200 77.7 250 86.3 300 88.2C350 90 400 85 450 83C500 81 550 82 600 83.5C650 85 700 87 750 85.7C800 84.3 850 79.7 875 77.3L900 75L900 151L875 151C850 151 800 151 750 151C700 151 650 151 600 151C550 151 500 151 450 151C400 151 350 151 300 151C250 151 200 151 150 151C100 151 50 151 25 151L0 151Z" fill="#ad35ee"></path><path d="M0 107L25 106.8C50 106.7 100 106.3 150 105.3C200 104.3 250 102.7 300 101.7C350 100.7 400 100.3 450 98.5C500 96.7 550 93.3 600 94.7C650 96 700 102 750 100.3C800 98.7 850 89.3 875 84.7L900 80L900 151L875 151C850 151 800 151 750 151C700 151 650 151 600 151C550 151 500 151 450 151C400 151 350 151 300 151C250 151 200 151 150 151C100 151 50 151 25 151L0 151Z" fill="#a233f1"></path><path d="M0 109L25 108.3C50 107.7 100 106.3 150 107.5C200 108.7 250 112.3 300 109.8C350 107.3 400 98.7 450 95.3C500 92 550 94 600 93.8C650 93.7 700 91.3 750 92C800 92.7 850 96.3 875 98.2L900 100L900 151L875 151C850 151 800 151 750 151C700 151 650 151 600 151C550 151 500 151 450 151C400 151 350 151 300 151C250 151 200 151 150 151C100 151 50 151 25 151L0 151Z" fill="#9631f4"></path><path d="M0 128L25 126.2C50 124.3 100 120.7 150 118.8C200 117 250 117 300 118.2C350 119.3 400 121.7 450 121.2C500 120.7 550 117.3 600 118C650 118.7 700 123.3 750 123.8C800 124.3 850 120.7 875 118.8L900 117L900 151L875 151C850 151 800 151 750 151C700 151 650 151 600 151C550 151 500 151 450 151C400 151 350 151 300 151C250 151 200 151 150 151C100 151 50 151 25 151L0 151Z" fill="#8930f8"></path><path d="M0 124L25 124.7C50 125.3 100 126.7 150 126.8C200 127 250 126 300 127C350 128 400 131 450 130.8C500 130.7 550 127.3 600 127.8C650 128.3 700 132.7 750 134.5C800 136.3 850 135.7 875 135.3L900 135L900 151L875 151C850 151 800 151 750 151C700 151 650 151 600 151C550 151 500 151 450 151C400 151 350 151 300 151C250 151 200 151 150 151C100 151 50 151 25 151L0 151Z" fill="#7a2ffb"></path></svg>