<svg id="visual" viewBox="0 0 900 150" width="900" height="150" xmlns="http://www.w3.org/2000/svg" xmlns:xlink="http://www.w3.org/1999/xlink" version="1.1"><rect x="0" y="0" width="900" height="150" fill="#FDFDBD"></rect><path d="M0 34L25 37.8C50 41.7 100 49.3 150 51.3C200 53.3 250 49.7 300 47.3C350 45 400 44 450 46.2C500 48.3 550 53.7 600 58.3C650 63 700 67 750 64.8C800 62.7 850 54.3 875 50.2L900 46L900 151L875 151C850 151 800 151 750 151C700 151 650 151 600 151C550 151 500 151 450 151C400 151 350 151 300 151C250 151 200 151 150 151C100 151 50 151 25 151L0 151Z" fill="#b8e8fc"></path><path d="M0 77L25 73.7C50 70.3 100 63.7 150 64.3C200 65 250 73 300 73.8C350 74.7 400 68.3 450 65.7C500 63 550 64 600 62.8C650 61.7 700 58.3 750 55.5C800 52.7 850 50.3 875 49.2L900 48L900 151L875 151C850 151 800 151 750 151C700 151 650 151 600 151C550 151 500 151 450 151C400 151 350 151 300 151C250 151 200 151 150 151C100 151 50 151 25 151L0 151Z" fill="#b1edfb"></path><path d="M0 92L25 88.3C50 84.7 100 77.3 150 74C200 70.7 250 71.3 300 73.2C350 75 400 78 450 81.3C500 84.7 550 88.3 600 87.8C650 87.3 700 82.7 750 82.5C800 82.3 850 86.7 875 88.8L900 91L900 151L875 151C850 151 800 151 750 151C700 151 650 151 600 151C550 151 500 151 450 151C400 151 350 151 300 151C250 151 200 151 150 151C100 151 50 151 25 151L0 151Z" fill="#aef3f7"></path><path d="M0 79L25 80C50 81 100 83 150 82.7C200 82.3 250 79.7 300 82.3C350 85 400 93 450 94.2C500 95.3 550 89.7 600 88C650 86.3 700 88.7 750 92C800 95.3 850 99.7 875 101.8L900 104L900 151L875 151C850 151 800 151 750 151C700 151 650 151 600 151C550 151 500 151 450 151C400 151 350 151 300 151C250 151 200 151 150 151C100 151 50 151 25 151L0 151Z" fill="#aef7f1"></path><path d="M0 97L25 97.2C50 97.3 100 97.7 150 98C200 98.3 250 98.7 300 101.3C350 104 400 109 450 110.8C500 112.7 550 111.3 600 109C650 106.7 700 103.3 750 103.7C800 104 850 108 875 110L900 112L900 151L875 151C850 151 800 151 750 151C700 151 650 151 600 151C550 151 500 151 450 151C400 151 350 151 300 151C250 151 200 151 150 151C100 151 50 151 25 151L0 151Z" fill="#b3fae9"></path><path d="M0 110L25 110.7C50 111.3 100 112.7 150 113.2C200 113.7 250 113.3 300 114.3C350 115.3 400 117.7 450 118.8C500 120 550 120 600 118.7C650 117.3 700 114.7 750 112.7C800 110.7 850 109.3 875 108.7L900 108L900 151L875 151C850 151 800 151 750 151C700 151 650 151 600 151C550 151 500 151 450 151C400 151 350 151 300 151C250 151 200 151 150 151C100 151 50 151 25 151L0 151Z" fill="#bbfddf"></path><path d="M0 128L25 129C50 130 100 132 150 131.8C200 131.7 250 129.3 300 128C350 126.7 400 126.3 450 126.8C500 127.3 550 128.7 600 128.7C650 128.7 700 127.3 750 127.8C800 128.3 850 130.7 875 131.8L900 133L900 151L875 151C850 151 800 151 750 151C700 151 650 151 600 151C550 151 500 151 450 151C400 151 350 151 300 151C250 151 200 151 150 151C100 151 50 151 25 151L0 151Z" fill="#c8ffd4"></path></svg>