<svg id="visual" viewBox="0 0 900 150" width="900" height="150" xmlns="http://www.w3.org/2000/svg" xmlns:xlink="http://www.w3.org/1999/xlink" version="1.1"><rect x="0" y="0" width="900" height="150" fill="#911bd7"></rect><path d="M0 106L25 103.2C50 100.3 100 94.7 150 96C200 97.3 250 105.7 300 105.8C350 106 400 98 450 96.7C500 95.3 550 100.7 600 102.5C650 104.3 700 102.7 750 99.7C800 96.7 850 92.3 875 90.2L900 88L900 0L875 0C850 0 800 0 750 0C700 0 650 0 600 0C550 0 500 0 450 0C400 0 350 0 300 0C250 0 200 0 150 0C100 0 50 0 25 0L0 0Z" fill="#bf3ce7"></path><path d="M0 73L25 74.7C50 76.3 100 79.7 150 84.3C200 89 250 95 300 96C350 97 400 93 450 89.3C500 85.7 550 82.3 600 79.8C650 77.3 700 75.7 750 76.8C800 78 850 82 875 84L900 86L900 0L875 0C850 0 800 0 750 0C700 0 650 0 600 0C550 0 500 0 450 0C400 0 350 0 300 0C250 0 200 0 150 0C100 0 50 0 25 0L0 0Z" fill="#b638ea"></path><path d="M0 72L25 71.7C50 71.3 100 70.7 150 68.2C200 65.7 250 61.3 300 61.7C350 62 400 67 450 69.8C500 72.7 550 73.3 600 72.5C650 71.7 700 69.3 750 66.7C800 64 850 61 875 59.5L900 58L900 0L875 0C850 0 800 0 750 0C700 0 650 0 600 0C550 0 500 0 450 0C400 0 350 0 300 0C250 0 200 0 150 0C100 0 50 0 25 0L0 0Z" fill="#ad35ee"></path><path d="M0 62L25 63.5C50 65 100 68 150 68C200 68 250 65 300 65C350 65 400 68 450 65C500 62 550 53 600 51.8C650 50.7 700 57.3 750 61.8C800 66.3 850 68.7 875 69.8L900 71L900 0L875 0C850 0 800 0 750 0C700 0 650 0 600 0C550 0 500 0 450 0C400 0 350 0 300 0C250 0 200 0 150 0C100 0 50 0 25 0L0 0Z" fill="#a233f1"></path><path d="M0 41L25 40.2C50 39.3 100 37.7 150 36.2C200 34.7 250 33.3 300 34.3C350 35.3 400 38.7 450 40C500 41.3 550 40.7 600 40.5C650 40.3 700 40.7 750 40.3C800 40 850 39 875 38.5L900 38L900 0L875 0C850 0 800 0 750 0C700 0 650 0 600 0C550 0 500 0 450 0C400 0 350 0 300 0C250 0 200 0 150 0C100 0 50 0 25 0L0 0Z" fill="#9631f4"></path><path d="M0 25L25 27.7C50 30.3 100 35.7 150 36.7C200 37.7 250 34.3 300 32.2C350 30 400 29 450 27.3C500 25.7 550 23.3 600 25.8C650 28.3 700 35.7 750 39C800 42.3 850 41.7 875 41.3L900 41L900 0L875 0C850 0 800 0 750 0C700 0 650 0 600 0C550 0 500 0 450 0C400 0 350 0 300 0C250 0 200 0 150 0C100 0 50 0 25 0L0 0Z" fill="#8930f8"></path><path d="M0 12L25 12.8C50 13.7 100 15.3 150 15.3C200 15.3 250 13.7 300 12.5C350 11.3 400 10.7 450 12.5C500 14.3 550 18.7 600 20.8C650 23 700 23 750 21C800 19 850 15 875 13L900 11L900 0L875 0C850 0 800 0 750 0C700 0 650 0 600 0C550 0 500 0 450 0C400 0 350 0 300 0C250 0 200 0 150 0C100 0 50 0 25 0L0 0Z" fill="#7a2ffb"></path></svg>