<svg id="visual" viewBox="0 0 960 150" width="960" height="150" xmlns="http://www.w3.org/2000/svg" xmlns:xlink="http://www.w3.org/1999/xlink" version="1.1"><rect x="0" y="0" width="960" height="150" fill="#FDFDBD"></rect><path d="M0 116L26.7 113.3C53.3 110.7 106.7 105.3 160 103.5C213.3 101.7 266.7 103.3 320 105.7C373.3 108 426.7 111 480 112.5C533.3 114 586.7 114 640 109.5C693.3 105 746.7 96 800 94.3C853.3 92.7 906.7 98.3 933.3 101.2L960 104L960 0L933.3 0C906.7 0 853.3 0 800 0C746.7 0 693.3 0 640 0C586.7 0 533.3 0 480 0C426.7 0 373.3 0 320 0C266.7 0 213.3 0 160 0C106.7 0 53.3 0 26.7 0L0 0Z" fill="#b8e8fc"></path><path d="M0 72L26.7 74.5C53.3 77 106.7 82 160 81C213.3 80 266.7 73 320 75.2C373.3 77.3 426.7 88.7 480 91.5C533.3 94.3 586.7 88.7 640 86.7C693.3 84.7 746.7 86.3 800 86.8C853.3 87.3 906.7 86.7 933.3 86.3L960 86L960 0L933.3 0C906.7 0 853.3 0 800 0C746.7 0 693.3 0 640 0C586.7 0 533.3 0 480 0C426.7 0 373.3 0 320 0C266.7 0 213.3 0 160 0C106.7 0 53.3 0 26.7 0L0 0Z" fill="#b1edfb"></path><path d="M0 54L26.7 54.7C53.3 55.3 106.7 56.7 160 59.7C213.3 62.7 266.7 67.3 320 71.3C373.3 75.3 426.7 78.7 480 76C533.3 73.3 586.7 64.7 640 64.5C693.3 64.3 746.7 72.7 800 77.8C853.3 83 906.7 85 933.3 86L960 87L960 0L933.3 0C906.7 0 853.3 0 800 0C746.7 0 693.3 0 640 0C586.7 0 533.3 0 480 0C426.7 0 373.3 0 320 0C266.7 0 213.3 0 160 0C106.7 0 53.3 0 26.7 0L0 0Z" fill="#aef3f7"></path><path d="M0 64L26.7 61.5C53.3 59 106.7 54 160 52.5C213.3 51 266.7 53 320 54.8C373.3 56.7 426.7 58.3 480 58C533.3 57.7 586.7 55.3 640 56.2C693.3 57 746.7 61 800 60.3C853.3 59.7 906.7 54.3 933.3 51.7L960 49L960 0L933.3 0C906.7 0 853.3 0 800 0C746.7 0 693.3 0 640 0C586.7 0 533.3 0 480 0C426.7 0 373.3 0 320 0C266.7 0 213.3 0 160 0C106.7 0 53.3 0 26.7 0L0 0Z" fill="#aef7f1"></path><path d="M0 46L26.7 43.8C53.3 41.7 106.7 37.3 160 36.3C213.3 35.3 266.7 37.7 320 39.8C373.3 42 426.7 44 480 46.5C533.3 49 586.7 52 640 49.8C693.3 47.7 746.7 40.3 800 38.5C853.3 36.7 906.7 40.3 933.3 42.2L960 44L960 0L933.3 0C906.7 0 853.3 0 800 0C746.7 0 693.3 0 640 0C586.7 0 533.3 0 480 0C426.7 0 373.3 0 320 0C266.7 0 213.3 0 160 0C106.7 0 53.3 0 26.7 0L0 0Z" fill="#b3fae9"></path><path d="M0 22L26.7 23.7C53.3 25.3 106.7 28.7 160 29.8C213.3 31 266.7 30 320 29.8C373.3 29.7 426.7 30.3 480 31.5C533.3 32.7 586.7 34.3 640 34.8C693.3 35.3 746.7 34.7 800 34.5C853.3 34.3 906.7 34.7 933.3 34.8L960 35L960 0L933.3 0C906.7 0 853.3 0 800 0C746.7 0 693.3 0 640 0C586.7 0 533.3 0 480 0C426.7 0 373.3 0 320 0C266.7 0 213.3 0 160 0C106.7 0 53.3 0 26.7 0L0 0Z" fill="#bbfddf"></path><path d="M0 18L26.7 19.2C53.3 20.3 106.7 22.7 160 22.2C213.3 21.7 266.7 18.3 320 17.5C373.3 16.7 426.7 18.3 480 17.8C533.3 17.3 586.7 14.7 640 14.5C693.3 14.3 746.7 16.7 800 17.7C853.3 18.7 906.7 18.3 933.3 18.2L960 18L960 0L933.3 0C906.7 0 853.3 0 800 0C746.7 0 693.3 0 640 0C586.7 0 533.3 0 480 0C426.7 0 373.3 0 320 0C266.7 0 213.3 0 160 0C106.7 0 53.3 0 26.7 0L0 0Z" fill="#c8ffd4"></path></svg>